<svg width="24" height="24" viewBox="0 0 24 24" fill="none" xmlns="http://www.w3.org/2000/svg">
    <path fill-rule="evenodd" clip-rule="evenodd"
          d="M18.6594 7.23325C17.3501 6.17679 15.7541 5.56361 14.0914 5.47827L13.8636 5.7457C15.3437 6.15115 16.7232 6.87465 17.911 7.86839C16.3961 7.01082 14.7326 6.46598 13.0141 6.26456C11.9213 6.14084 10.818 6.15206 9.72775 6.29799C8.35476 6.42978 7.01297 6.797 5.75813 7.38441C5.15617 7.66855 4.79826 7.86911 4.79826 7.86911C6.05061 6.82518 7.51149 6.07761 9.07699 5.67957L8.9143 5.479C7.25033 5.5636 5.65296 6.17681 4.34273 7.23398C2.85385 10.258 2.0528 13.5899 2 16.9783C2 16.9783 3.36659 19.4018 6.96203 19.5217C6.96203 19.5217 7.56398 18.7696 8.05205 18.1345C6.90826 17.8381 5.9012 17.1405 5.20498 16.1622C6.49975 17.0057 7.94079 17.5845 9.44905 17.8671C10.8404 18.1417 12.2694 18.1473 13.6627 17.8838C15.1667 17.6017 16.6031 17.0227 17.8926 16.1789C17.1702 17.1781 16.1272 17.8826 14.948 18.1679C15.436 18.803 16.0217 19.5217 16.0217 19.5217C19.6171 19.4048 21 16.9783 21 16.9783C20.948 13.5898 20.1476 10.2577 18.6594 7.23325ZM8.45875 15.421C7.52004 15.3399 6.7983 14.5335 6.7983 13.5657C6.7983 12.5979 7.52004 11.7915 8.45875 11.7104C9.39747 11.7915 10.1192 12.5979 10.1192 13.5657C10.1192 14.5335 9.39747 15.3399 8.45875 15.421ZM12.6207 14.3857C12.9496 15.0747 13.6562 15.4857 14.4005 15.421H14.397C15.3527 15.3758 16.0947 14.5481 16.0599 13.5658C16.0599 12.7984 15.6016 12.1097 14.9057 11.8311C14.2097 11.5525 13.4187 11.7411 12.9133 12.3061C12.4079 12.8711 12.2917 13.6968 12.6207 14.3857Z"
          fill="white"/>
</svg>
