<svg width="20" height="20" viewBox="0 0 20 20" fill="none" xmlns="http://www.w3.org/2000/svg">
    <g clip-path="url(#clip0_448_85)">
        <path d="M18.75 0H1.25C0.918479 0 0.600537 0.131696 0.366117 0.366117C0.131696 0.600537 0 0.918479 0 1.25L0 18.75C0 19.0815 0.131696 19.3995 0.366117 19.6339C0.600537 19.8683 0.918479 20 1.25 20H18.75C19.0815 20 19.3995 19.8683 19.6339 19.6339C19.8683 19.3995 20 19.0815 20 18.75V1.25C20 0.918479 19.8683 0.600537 19.6339 0.366117C19.3995 0.131696 19.0815 0 18.75 0V0ZM16.615 4.73875L15.5425 5.7675C15.4961 5.80143 15.4598 5.84748 15.4378 5.90061C15.4157 5.95374 15.4087 6.0119 15.4175 6.06875V13.625C15.4087 13.6818 15.4157 13.74 15.4378 13.7931C15.4598 13.8463 15.4961 13.8923 15.5425 13.9262L16.59 14.955V15.1813H11.3213V14.955L12.4063 13.9013C12.5125 13.795 12.5125 13.7638 12.5125 13.6V7.49125L9.5 15.155H9.08875L5.57625 7.4925V12.625C5.5618 12.7317 5.57186 12.8403 5.60564 12.9425C5.63943 13.0447 5.69607 13.1379 5.77125 13.215L7.1825 14.9275V15.1538H3.1825V14.9275L4.59375 13.215C4.66832 13.1379 4.7237 13.0443 4.75541 12.9418C4.78711 12.8393 4.79425 12.7308 4.77625 12.625V6.68875C4.78409 6.6072 4.77256 6.52495 4.74258 6.4487C4.7126 6.37246 4.66503 6.30437 4.60375 6.25L3.35375 4.73875V4.5125H7.25L10.25 11.1162L12.9025 4.5125H16.6163L16.615 4.73875Z"
              fill="white"/>
    </g>
    <defs>
        <clipPath id="clip0_448_85">
            <rect width="20" height="20" fill="white"/>
        </clipPath>
    </defs>
</svg>
