<svg width="24" height="24" viewBox="0 0 24 24" fill="none" xmlns="http://www.w3.org/2000/svg">
    <path fill-rule="evenodd" clip-rule="evenodd" d="M2.63394 11.105L20.9582 4.03614C21.347 3.88609 21.7477 4.22617 21.6628 4.63407L18.3747 20.4516C18.297 20.8255 17.8593 20.9947 17.5502 20.7703L13.0609 17.511C12.7886 17.3132 12.4173 17.3236 12.1564 17.5363L9.66753 19.5653C9.37863 19.8009 8.94315 19.6696 8.83241 19.3137L7.10406 13.7558L2.63927 12.0892C2.18566 11.9198 2.1822 11.2793 2.63394 11.105ZM10.2621 14.4296L17.4639 7.73536C17.5986 7.6101 17.437 7.39782 17.2804 7.49417L8.55417 12.869C8.21929 13.0753 8.06232 13.4792 8.16999 13.8575L9.11345 17.1723C9.18035 17.4076 9.52162 17.3832 9.55427 17.1407L9.79933 15.3229C9.84557 14.9806 10.0091 14.6648 10.2621 14.4296Z" fill="white"/>
</svg>
