<svg width="87" height="71" viewBox="0 0 87 71" fill="none" xmlns="http://www.w3.org/2000/svg">
<path fill-rule="evenodd" clip-rule="evenodd" d="M43.5 0L0 71H87L43.5 0ZM80.1633 70.2234H6.83672L43.5 61.8083L80.1633 70.2234ZM5.36179 69.7693L43.5 61.0156L81.6382 69.7693L43.5 55.1798L5.36179 69.7693ZM43.5 48.5636L5.62341 68.8488L43.5 54.3594L81.3766 68.8488L43.5 48.5636ZM5.95433 67.8111L43.5 47.7031L81.0457 67.8111L43.5 41.958L5.95433 67.8111ZM43.5 35.3613L6.34375 66.6318L43.5 41.0469L80.6562 66.6318L43.5 35.3613ZM6.78162 65.2926L43.5 34.3906L80.2184 65.2926L43.5 28.7721L6.78162 65.2926ZM43.5 22.1889L7.25919 63.7799L43.5 27.7344L79.7408 63.78L43.5 22.1889ZM7.76899 62.0841L43.5 21.0781L79.2309 62.084L43.5 15.6107L7.76899 62.0841ZM43.5 7.94112L7.19739 61.6387L43.5 14.4219L79.8026 61.6388L43.5 7.94112ZM8.95802 57.7496L43.5 6.65625L78.042 57.7496L43.5 1.37074L8.95802 57.7496Z" fill="url(#paint0_linear_20_20)"/>
<defs>
<linearGradient id="paint0_linear_20_20" x1="79.6126" y1="6.69515" x2="47.6848" y2="45.1153" gradientUnits="userSpaceOnUse">
<stop stop-color="#E5F9EA"/>
<stop offset="1" stop-color="#E5F9EA"/>
</linearGradient>
</defs>
</svg>
