<?xml version="1.0" encoding="UTF-8"?><svg id="Camada_2" xmlns="http://www.w3.org/2000/svg" xmlns:xlink="http://www.w3.org/1999/xlink" viewBox="0 0 82.05 82.05"><defs><style>.cls-1{fill:url(#Gradiente_sem_nome_6-5);}.cls-2{fill:url(#Gradiente_sem_nome_6-6);}.cls-3{fill:url(#Gradiente_sem_nome_6);}.cls-4{fill:url(#Gradiente_sem_nome_6-3);}.cls-5{fill:url(#Gradiente_sem_nome_6-4);}.cls-6{fill:url(#Gradiente_sem_nome_6-2);}</style><linearGradient id="Gradiente_sem_nome_6" x1="-30.8" y1="182.08" x2="23.48" y2="75.48" gradientUnits="userSpaceOnUse"><stop offset="0" stop-color="#e5f9ea"/><stop offset="1" stop-color="#e5f9ea"/></linearGradient><linearGradient id="Gradiente_sem_nome_6-2" x1="-21.96" y1="164.72" x2="25.64" y2="71.24" xlink:href="#Gradiente_sem_nome_6"/><linearGradient id="Gradiente_sem_nome_6-3" x1="-13.12" y1="147.36" x2="27.8" y2="67" xlink:href="#Gradiente_sem_nome_6"/><linearGradient id="Gradiente_sem_nome_6-4" x1="-4.28" y1="130" x2="29.96" y2="62.76" xlink:href="#Gradiente_sem_nome_6"/><linearGradient id="Gradiente_sem_nome_6-5" x1="4.56" y1="112.64" x2="32.12" y2="58.51" xlink:href="#Gradiente_sem_nome_6"/><linearGradient id="Gradiente_sem_nome_6-6" x1="13.4" y1="95.28" x2="34.28" y2="54.27" xlink:href="#Gradiente_sem_nome_6"/></defs><g id="Camada_1-2"><g><path class="cls-3" d="M78.92,25.32c-2.06-4.98-5.08-9.5-8.89-13.31-3.81-3.81-8.33-6.83-13.31-8.89-4.98-2.06-10.31-3.12-15.7-3.12s-10.72,1.06-15.7,3.12c-4.98,2.06-9.5,5.08-13.31,8.89-3.81,3.81-6.83,8.33-8.89,13.31-2.06,4.98-3.12,10.31-3.12,15.7s1.06,10.72,3.12,15.7c2.06,4.98,5.08,9.5,8.89,13.31,3.81,3.81,8.33,6.83,13.31,8.89s10.31,3.12,15.7,3.12,10.72-1.06,15.7-3.12,9.5-5.08,13.31-8.89c3.81-3.81,6.83-8.33,8.89-13.31s3.12-10.31,3.12-15.7-1.06-10.72-3.12-15.7Zm-1.17,30.91c-2,4.82-4.93,9.21-8.62,12.9-3.69,3.69-8.08,6.62-12.9,8.62-4.82,2-9.99,3.03-15.22,3.03s-10.39-1.03-15.22-3.03c-4.82-2-9.21-4.93-12.9-8.62-3.69-3.69-6.62-8.08-8.62-12.9-2-4.82-3.03-9.99-3.03-15.22h0c0-5.22,1.03-10.39,3.03-15.22,2-4.82,4.93-9.21,8.62-12.9,3.69-3.69,8.08-6.62,12.9-8.62,4.82-2,9.99-3.03,15.22-3.03s10.39,1.03,15.22,3.03c4.82,2,9.21,4.93,12.9,8.62,3.69,3.69,6.62,8.08,8.62,12.9,2,4.82,3.03,9.99,3.03,15.22h0c0,5.22-1.03,10.39-3.03,15.22Z"/><path class="cls-6" d="M41.02,5.05c-9.54,0-18.69,3.79-25.44,10.54-6.75,6.75-10.54,15.9-10.54,25.44h0c0,9.54,3.79,18.69,10.54,25.44s15.9,10.54,25.44,10.54,18.69-3.79,25.44-10.54,10.54-15.9,10.54-25.44-3.79-18.69-10.54-25.44-15.9-10.54-25.44-10.54Zm24.54,60.52c-6.51,6.51-15.34,10.17-24.54,10.17s-18.04-3.66-24.54-10.17c-6.51-6.51-10.17-15.34-10.17-24.54h0c0-9.21,3.66-18.04,10.17-24.54S31.82,6.31,41.02,6.31s18.04,3.66,24.54,10.17c6.51,6.51,10.17,15.34,10.17,24.54s-3.66,18.04-10.17,24.54Z"/><path class="cls-4" d="M41.02,10.1c-8.2,0-16.07,3.26-21.87,9.06s-9.06,13.67-9.06,21.87,3.26,16.07,9.06,21.87c5.8,5.8,13.67,9.06,21.87,9.06s16.07-3.26,21.87-9.06,9.06-13.67,9.06-21.87h0c0-8.2-3.26-16.07-9.06-21.87-5.8-5.8-13.67-9.06-21.87-9.06Zm29.66,30.92c0,7.87-3.13,15.41-8.69,20.97s-13.11,8.69-20.97,8.69-15.41-3.13-20.97-8.69c-5.56-5.56-8.69-13.11-8.69-20.97h0c0-7.87,3.13-15.41,8.69-20.97s13.11-8.69,20.97-8.69,15.41,3.13,20.97,8.69c5.56,5.56,8.69,13.11,8.69,20.97h0Z"/><path class="cls-5" d="M41.02,15.15c-6.86,0-13.44,2.73-18.3,7.58-4.85,4.85-7.58,11.43-7.58,18.3h0c0,6.86,2.73,13.44,7.58,18.3,4.85,4.85,11.43,7.58,18.3,7.58s13.44-2.73,18.3-7.58c4.85-4.85,7.58-11.43,7.58-18.3h0c0-6.86-2.73-13.44-7.58-18.3-4.85-4.85-11.43-7.58-18.3-7.58Zm17.4,43.28c-4.62,4.62-10.88,7.21-17.4,7.21s-12.79-2.59-17.4-7.21c-4.62-4.62-7.21-10.88-7.21-17.4s2.59-12.79,7.21-17.4,10.88-7.21,17.4-7.21,12.79,2.59,17.4,7.21c4.62,4.62,7.21,10.88,7.21,17.4s-2.59,12.79-7.21,17.4Z"/><path class="cls-1" d="M41.02,20.2c-5.52,0-10.82,2.19-14.73,6.1-3.91,3.91-6.1,9.2-6.1,14.73h0c0,5.52,2.19,10.82,6.1,14.73,3.91,3.91,9.2,6.1,14.73,6.1s10.82-2.19,14.73-6.1c3.91-3.91,6.1-9.2,6.1-14.73h0c0-5.52-2.19-10.82-6.1-14.73-3.91-3.91-9.2-6.1-14.73-6.1Zm19.56,20.83c0,5.19-2.06,10.17-5.73,13.83-3.67,3.67-8.65,5.73-13.83,5.73s-10.17-2.06-13.83-5.73c-3.67-3.67-5.73-8.65-5.73-13.83h0c0-5.19,2.06-10.17,5.73-13.83,3.67-3.67,8.65-5.73,13.83-5.73s10.17,2.06,13.83,5.73c3.67,3.67,5.73,8.65,5.73,13.83h0Z"/><path class="cls-2" d="M41.02,25.24c-4.18,0-8.2,1.66-11.16,4.62-2.96,2.96-4.62,6.97-4.62,11.16h0c0,4.18,1.66,8.2,4.62,11.16,2.96,2.96,6.97,4.62,11.16,4.62s8.2-1.66,11.16-4.62c2.96-2.96,4.62-6.97,4.62-11.16h0c0-4.18-1.66-8.2-4.62-11.16-2.96-2.96-6.97-4.62-11.16-4.62Zm10.26,26.04c-2.72,2.72-6.41,4.25-10.26,4.25s-7.54-1.53-10.26-4.25c-2.72-2.72-4.25-6.41-4.25-10.26s1.53-7.54,4.25-10.26c2.72-2.72,6.41-4.25,10.26-4.25s7.54,1.53,10.26,4.25c2.72,2.72,4.25,6.41,4.25,10.26s-1.53,7.54-4.25,10.26Z"/></g></g></svg>