<svg width="75" height="75" viewBox="0 0 75 75" fill="none" xmlns="http://www.w3.org/2000/svg">
<path fill-rule="evenodd" clip-rule="evenodd" d="M14.1225 64.6716C27.2998 77.8338 49.1124 77.3803 63.253 63.2234C77.3937 49.0665 77.8221 27.2534 64.6448 14.0912C62.5903 12.0391 49.6151 21.6984 35.6637 35.6658C21.7124 49.6332 12.068 62.6195 14.1225 64.6716ZM28.6868 72.1091C40.0868 75.2734 53.139 72.1091 62.633 62.6041C72.1271 53.0991 75.2764 40.0434 72.099 28.6469C73.9422 39.2531 70.0764 51.4323 60.7731 60.7463C51.4698 70.0603 39.2951 73.9401 28.6868 72.1091ZM60.1531 60.127C50.4218 69.8695 37.5435 73.4852 26.7829 70.7597C36.8138 72.1326 48.8124 67.7608 58.2931 58.2692C67.7739 48.7776 72.1318 36.7739 70.7475 26.7446C73.4853 37.5021 69.8844 50.3846 60.1531 60.127ZM24.9071 69.4786C34.9717 71.7615 47.6716 67.663 57.6732 57.6499C67.6747 47.6369 71.7586 34.9322 69.4642 24.8703C69.718 27.4687 69.53 30.2497 68.9224 33.1139C67.3291 40.6251 62.8473 48.7499 55.8132 55.7921C48.7791 62.8343 40.6595 67.3254 33.1501 68.9274C30.2866 69.5382 27.5058 69.7295 24.9071 69.4786ZM33.0215 68.0388C29.493 68.7915 26.1264 68.8834 23.1013 68.2901C25.6729 68.4128 28.4915 68.024 31.4304 67.1672C38.4802 65.1121 46.3097 60.3467 53.3333 53.315C60.3569 46.2833 65.1133 38.4484 67.1603 31.3962C68.0137 28.4563 68.3992 25.6374 68.2736 23.0659C68.8703 26.0902 68.7823 29.457 68.0337 32.9863C66.4846 40.2894 62.1105 48.2477 55.1932 55.1728C48.276 62.098 40.3228 66.4813 33.0215 68.0388ZM21.4201 67.2025C24.3065 67.6553 27.6457 67.3418 31.234 66.2958C38.0973 64.295 45.7856 59.6314 52.7133 52.6958C59.641 45.7601 64.2957 38.0664 66.2886 31.2008C67.3305 27.6113 67.6402 24.2717 67.1841 21.3859C67.1482 23.8802 66.5253 26.6992 65.3945 29.6813C62.8956 36.2713 57.867 43.8162 50.8533 50.8379C43.8396 57.8597 36.3005 62.897 29.7134 65.4034C26.7326 66.5376 23.9144 67.1637 21.4201 67.2025ZM29.4438 64.5565C25.8029 65.9419 22.5306 66.5097 19.8494 66.2237C22.1956 65.9938 24.9706 65.0966 27.9985 63.6352C34.1203 60.6803 41.369 55.3733 48.3734 48.3609C55.3778 41.3484 60.6765 34.0936 63.6243 27.9684C65.0823 24.9388 65.9762 22.1628 66.2035 19.8164C66.4926 22.4972 65.9285 25.7701 64.5472 29.4127C62.1086 35.8439 57.171 43.273 50.2334 50.2187C43.2957 57.1643 35.8723 62.1104 29.4438 64.5565ZM18.4006 65.3671C18.8275 65.3834 19.2798 65.3696 19.7568 65.3255C21.9664 65.1212 24.6519 64.2694 27.6516 62.8216C33.6477 59.9274 40.8065 54.6965 47.7534 47.7416C54.7004 40.7866 59.923 33.6219 62.8103 27.6224C64.2547 24.6211 65.1034 21.9346 65.3051 19.7247C65.3487 19.2478 65.362 18.7954 65.3452 18.3685C65.3116 18.5275 65.274 18.6888 65.2325 18.852C64.7107 20.9063 63.5439 23.4305 61.8492 26.2568C58.4561 31.9155 52.8891 38.8801 45.8935 45.8838C38.8978 52.8875 31.9396 58.4625 26.2848 61.862C23.4605 63.56 20.9376 64.7297 18.884 65.2539C18.7207 65.2955 18.5595 65.3333 18.4006 65.3671ZM18.7187 64.3739C17.7816 64.6131 16.9963 64.6967 16.3566 64.6423C21.0652 62.9593 31.7619 54.4518 43.1035 43.097C54.4452 31.7423 62.9405 21.0359 64.618 16.3254C64.6732 16.965 64.5905 17.7504 64.3524 18.6878C63.8634 20.6124 62.7499 23.0431 61.0783 25.8309C57.7387 31.4004 52.2292 38.3008 45.2735 45.2645C38.3178 52.2282 31.4237 57.7456 25.8581 61.0916C23.0722 62.7664 20.6428 63.8828 18.7187 64.3739ZM63.4666 14.7531C63.8232 14.6945 63.9506 14.7433 63.9789 14.7578C63.9935 14.7861 64.0424 14.9134 63.9843 15.2701C63.9113 15.7182 63.6933 16.3518 63.2943 17.1775C62.5011 18.819 61.0952 21.0126 59.1603 23.618C55.2994 28.8168 49.4356 35.5177 42.4836 42.4778C35.5315 49.4378 28.8373 55.3093 23.643 59.1761C21.0398 61.114 18.8478 62.5224 17.2073 63.3175C16.382 63.7175 15.7486 63.9362 15.3007 64.0098C14.944 64.0683 14.8166 64.0195 14.7883 64.005C14.7738 63.9767 14.7248 63.8494 14.783 63.4927C14.856 63.0446 15.074 62.411 15.473 61.5853C16.2662 59.9438 17.6721 57.7502 19.607 55.1448C23.4679 49.946 29.3317 43.2451 36.2837 36.285C43.2358 29.325 49.93 23.4536 55.1243 19.5867C57.7275 17.6488 59.9195 16.2404 61.56 15.4453C62.3853 15.0453 63.0187 14.8266 63.4666 14.7531Z" fill="url(#paint0_linear_24_15)"/>
<path fill-rule="evenodd" clip-rule="evenodd" d="M10.3551 60.9088C-2.82218 47.7466 -2.39375 25.9335 11.7469 11.7766C25.8875 -2.38027 47.7001 -2.83377 60.8774 10.3284C62.9319 12.3805 53.2875 25.3668 39.3362 39.3342C25.3848 53.3016 12.4096 62.9609 10.3551 60.9088ZM2.90088 46.3531C-0.276503 34.9566 2.87279 21.9009 12.3669 12.3959C21.861 2.89089 34.9131 -0.2734 46.3132 2.89089C35.7049 1.05992 23.5301 4.93974 14.2268 14.2537C4.92355 23.5677 1.05771 35.7469 2.90088 46.3531ZM14.8468 14.873C5.11555 24.6154 1.51465 37.4979 4.25245 48.2554C2.8681 38.2261 7.22602 26.2224 16.7068 16.7308C26.1875 7.23916 38.1861 2.86747 48.217 4.24027C37.4564 1.51483 24.5781 5.13053 14.8468 14.873ZM5.53572 50.1297C3.24129 40.0678 7.32519 27.3631 17.3267 17.3501C27.3283 7.33701 40.0283 3.23852 50.0928 5.52139C47.4941 5.27053 44.7133 5.46181 41.8498 6.07265C34.3404 7.67456 26.2208 12.1657 19.1867 19.2079C12.1526 26.2501 7.67079 34.3749 6.07751 41.8861C5.46996 44.7503 5.28188 47.5313 5.53572 50.1297ZM6.96624 42.0137C6.21759 45.543 6.12958 48.9098 6.72627 51.9341C6.60066 49.3626 6.98622 46.5437 7.8396 43.6038C9.88666 36.5516 14.643 28.7167 21.6666 21.685C28.6903 14.6533 36.5197 9.88793 43.5695 7.83277C46.5084 6.97602 49.327 6.58722 51.8986 6.70987C48.8736 6.11665 45.5069 6.20853 41.9784 6.96124C34.6772 8.51874 26.7239 12.902 19.8067 19.8272C12.8895 26.7523 8.51536 34.7106 6.96624 42.0137ZM7.81582 53.6141C7.35973 50.7282 7.66937 47.3886 8.71131 43.7992C10.7042 36.9336 15.3589 29.2399 22.2866 22.3042C29.2143 15.3686 36.9026 10.705 43.7659 8.70425C47.3542 7.65819 50.6935 7.34471 53.5798 7.79748C51.0855 7.83626 48.2673 8.46241 45.2865 9.5966C38.6994 12.103 31.1603 17.1403 24.1466 24.1621C17.1329 31.1838 12.1043 38.7287 9.60541 45.3187C8.47464 48.3008 7.85173 51.1197 7.81582 53.6141ZM10.4527 45.5873C9.07144 49.2299 8.50732 52.5028 8.79642 55.1836C9.02368 52.8372 9.91762 50.0612 11.3756 47.0316C14.3234 40.9064 19.6221 33.6516 26.6265 26.6392C33.6309 19.6267 40.8796 14.3197 47.0014 11.3648C50.0293 9.90336 52.8043 9.00624 55.1505 8.77628C52.4693 8.49026 49.197 9.05814 45.5561 10.4435C39.1276 12.8896 31.7042 17.8357 24.7666 24.7813C17.8289 31.727 12.8913 39.1561 10.4527 45.5873ZM9.65472 56.6315C9.63793 56.2046 9.65123 55.7522 9.69477 55.2753C9.89652 53.0654 10.7452 50.3789 12.1896 47.3776C15.0769 41.3781 20.2995 34.2134 27.2465 27.2584C34.1935 20.3035 41.3522 15.0726 47.3483 12.1784C50.348 10.7306 53.0336 9.87882 55.2431 9.67453C55.7201 9.63043 56.1724 9.61662 56.5993 9.63292C56.4404 9.66667 56.2792 9.70447 56.1159 9.74614C54.0623 10.2703 51.5395 11.44 48.7151 13.138C43.0603 16.5375 36.1021 22.1125 29.1064 29.1162C22.1108 36.1199 16.5438 43.0845 13.1507 48.7432C11.456 51.5696 10.2892 54.0937 9.76738 56.148C9.7259 56.3112 9.68829 56.4725 9.65472 56.6315ZM10.6476 56.3122C10.4094 57.2496 10.3267 58.0351 10.3819 58.6746C12.0594 53.9641 20.5547 43.2577 31.8964 31.903C43.2381 20.5482 53.9347 12.0407 58.6433 10.3577C58.0037 10.3033 57.2183 10.3869 56.2812 10.6261C54.3571 11.1172 51.9277 12.2336 49.1418 13.9084C43.5762 17.2544 36.6821 22.7718 29.7264 29.7355C22.7707 36.6992 17.2612 43.5996 13.9217 49.1691C12.2501 51.9569 11.1365 54.3876 10.6476 56.3122ZM60.2169 11.5073C60.2751 11.1506 60.2261 11.0233 60.2116 10.995C60.1833 10.9805 60.0559 10.9317 59.6993 10.9902C59.2513 11.0638 58.6179 11.2825 57.7927 11.6825C56.1521 12.4776 53.9601 13.886 51.3569 15.8239C46.1626 19.6908 39.4684 25.5622 32.5164 32.5222C25.5643 39.4823 19.7006 46.1832 15.8397 51.382C13.9047 53.9874 12.4989 56.181 11.7056 57.8225C11.3066 58.6482 11.0886 59.2818 11.0156 59.7299C10.9575 60.0866 11.0064 60.2139 11.021 60.2422C11.0493 60.2567 11.1767 60.3055 11.5333 60.247C11.9812 60.1734 12.6146 59.9547 13.4399 59.5547C15.0804 58.7596 17.2724 57.3512 19.8756 55.4133C25.07 51.5465 31.7642 45.675 38.7162 38.715C45.6682 31.7549 51.532 25.054 55.3929 19.8552C57.3278 17.2498 58.7337 15.0562 59.5269 13.4147C59.9259 12.589 60.1439 11.9554 60.2169 11.5073Z" fill="url(#paint1_linear_24_15)"/>
<defs>
<linearGradient id="paint0_linear_24_15" x1="7.02875" y1="7.71778" x2="40.6015" y2="40.6876" gradientUnits="userSpaceOnUse">
<stop stop-color="#E5F9EA"/>
<stop offset="1" stop-color="#E5F9EA"/>
</linearGradient>
<linearGradient id="paint1_linear_24_15" x1="7.02875" y1="7.71778" x2="40.6015" y2="40.6876" gradientUnits="userSpaceOnUse">
<stop stop-color="#E5F9EA"/>
<stop offset="1" stop-color="#E5F9EA"/>
</linearGradient>
</defs>
</svg>
