<svg width="119" height="37" viewBox="0 0 119 37" fill="none" xmlns="http://www.w3.org/2000/svg">
    <g opacity="0.5" clip-path="url(#clip0_301_564)">
        <path d="M77.2834 29.7759C78.2346 29.7759 78.8835 29.4736 78.8835 28.8253C78.8942 28.6018 78.2399 28.4464 77.2654 28.2148C74.2866 27.5075 68.3158 26.0893 69.1959 19.839C69.8446 15.4322 74.1261 12.84 78.8835 12.7968C80.6708 12.7968 82.7434 13.2136 84.5229 13.9846C85.9164 14.5891 86.7981 15.203 87.3477 15.581C87.43 15.6375 87.4986 15.6848 87.5531 15.721C85.8744 18.5713 85.7633 21.5978 86.7849 23.5765C85.9656 22.99 84.774 22.2613 83.7592 21.6507C83.6182 21.566 83.484 21.4857 83.3592 21.4109C83.2443 21.342 83.1372 21.2779 83.0399 21.2194C81.7892 20.497 79.5958 19.3638 78.1916 19.3638C77.4996 19.3638 76.9806 19.6662 76.894 20.3575C76.8453 20.6985 77.6457 20.9263 78.8068 21.2566C81.7636 22.0979 87.0596 23.6047 86.6249 29.3438C86.2357 34.6148 81.4782 36.7316 76.6344 36.8181C73.9964 36.8614 70.4933 35.6515 68.2875 34.1827L71.2718 27.3564C72.8287 28.8253 75.5533 29.7759 77.2834 29.7759Z"
              fill="white"/>
        <path d="M96.6687 29.7754C97.6202 29.7754 98.2689 29.4728 98.2689 28.8248C98.2795 28.601 97.6253 28.4456 96.6507 28.2143C93.6722 27.5067 87.7014 26.0885 88.5813 19.8378C89.23 15.4307 93.5117 12.8383 98.2689 12.795C100.777 12.795 103.848 13.616 105.881 15.085L103.286 21.7389C102.68 21.35 99.4366 19.3625 97.5769 19.3625C96.8849 19.3625 96.3659 19.6649 96.2796 20.3562C96.2307 20.6974 97.031 20.9251 98.1922 21.2555C101.149 22.0968 106.445 23.6037 106.01 29.3433C105.621 34.6145 100.864 36.7316 96.02 36.818C93.479 36.8596 90.1343 35.7402 87.9207 34.3451C87.9207 34.3451 87.73 34.2204 87.6731 34.1824L87.4551 34.0354C88.5084 32.8542 90.0845 28.8351 88.4078 24.8661C88.6605 25.1172 88.8955 25.4045 89.1512 25.7173C89.8308 26.549 90.6579 27.5607 92.3632 28.5521C93.7968 29.3197 95.4711 29.7754 96.6687 29.7754Z"
              fill="white"/>
        <path d="M54.876 36.1576V21.8726C54.876 21.8726 55.1352 20.3575 56.2599 20.0545C58.3857 19.5537 58.3822 22.8738 58.3791 25.6729V25.6749C58.3791 25.7791 58.3789 25.8825 58.3789 25.9849V36.1576H66.5587V25.9849C66.5587 19.2763 66.5587 12.7558 60.5556 12.7559C57.8743 12.7559 56.0434 14.2971 54.876 15.6824V13.4314H46.6946V36.1576H54.876Z"
              fill="white"/>
        <path d="M108.584 36.1432C113.432 36.1508 117.365 32.2197 117.365 27.3676V13.4308H108.586V29.4186C108.586 30.1203 108.495 30.819 108.316 31.4972C108 32.69 107.418 33.7952 106.612 34.7291L105.391 36.1432H108.584Z"
              fill="white"/>
        <path d="M115.855 7.51298L113.197 7.50487L111.494 9.47955L111.458 6.87133L109.417 5.16738L112.075 5.17552L113.777 3.20081L113.814 5.80903L115.855 7.51298Z"
              fill="white"/>
        <path fill-rule="evenodd" clip-rule="evenodd"
              d="M118.951 8.64069L113.707 8.62467L110.418 12.4391L110.348 7.40091L106.321 4.03969L111.565 4.05571L114.854 0.241272L114.924 5.27947L118.951 8.64069ZM112.76 6.38529L112.704 6.33861L112.701 6.16035L112.585 6.2953L112.512 6.29509L112.568 6.34175L112.57 6.52001L112.687 6.38506L112.76 6.38529Z"
              fill="white"/>
        <path fill-rule="evenodd" clip-rule="evenodd"
              d="M2.52918 27.6372V20.4023H0.235352L0.235442 13.4291H2.52918V10.473L10.7047 7.68536V13.4291H14.1582L14.7211 20.4023H10.7047V27.6372C10.7047 28.2913 11.3037 28.6263 11.957 28.6263C12.8494 28.6263 13.5693 27.8838 13.8718 26.5733C14.7659 22.7007 16.7279 18.0829 21.6343 15.19C26.4471 12.3523 31.4605 12.381 35.0748 13.3262C39.5011 14.4836 44.2019 16.6495 44.1459 22.9354V36.1495H36.1425V34.5727C35.185 35.2116 32.547 36.6084 29.4656 35.9711C25.7617 35.2047 24.1267 32.4928 23.7869 30.1431C23.4471 27.7933 23.9582 23.7267 28.4681 22.4591C31.8958 21.4956 35.9714 22.7867 35.9714 22.7867C35.9714 22.4034 34.3107 21.3792 32.2439 21.1109C29.8897 20.8053 27.5148 21.0234 25.888 22.1582C23.381 23.9072 22.5048 25.8209 21.791 28.6066C21.0073 31.6646 18.8037 35.0686 14.9022 36.2344L14.2985 36.4146C8.42929 38.1683 2.52918 33.7681 2.52918 27.6372ZM34.0973 26.3744C35.5245 26.3744 36.1299 27.197 36.1299 28.5822C36.1299 29.9241 35.5245 30.7898 34.0973 30.7898C32.7133 30.7898 31.7618 29.9241 31.7618 28.5822C31.7618 27.197 32.7133 26.3744 34.0973 26.3744Z"
              fill="white"/>
    </g>
    <defs>
        <clipPath id="clip0_301_564">
            <rect width="119" height="37" fill="white"/>
        </clipPath>
    </defs>
</svg>
