<svg width="64" height="64" viewBox="0 0 64 64" fill="none" xmlns="http://www.w3.org/2000/svg">
<circle cx="32" cy="32" r="32" fill="url(#paint0_linear_1_24)"/>
<path d="M19.798 36.265C18.2808 42.9298 15.9635 44.5629 15.5663 44.9988C14.7939 45.8429 18.038 45.7712 18.7387 45.3408C21.1663 43.8622 22.3304 41.9091 23.8035 37.7932C25.7015 32.5022 25.9111 26.2732 26.1042 21.6553C26.1925 19.5698 23.5387 19.4098 23.5387 19.4098C22.507 19.1836 17.3263 18.3119 19.6104 21.396C20.4932 22.5877 21.1387 26.2567 20.8022 29.2415C20.8022 29.2415 20.7801 31.967 19.798 36.2594V36.265Z" fill="black"/>
<path d="M31.809 19.4594C34.4849 21.556 35.2959 23.7022 35.1635 29.098C35.4394 35.5643 34.6559 47.6415 30.0049 35.978C29.4587 33.1146 30.7332 26.5932 30.7939 24.0718C30.838 22.2787 30.1208 20.607 29.9001 19.8015C29.9001 19.8015 30.0159 18.218 31.8145 19.4594H31.809Z" fill="black"/>
<path d="M44.1841 35.4263C44.322 30.2015 44.471 26.7422 45.4365 16.6512C45.4806 16.2043 45.2599 15.807 44.9675 15.4705C44.1068 14.4994 39.5661 12.3256 37.7896 13.6663C37.2434 14.0801 37.591 15.1946 37.8999 15.7684C38.6779 17.065 39.6544 21.9808 39.8972 24.3422C40.3992 29.4787 40.1013 38.8305 38.4903 44.8112C38.4185 45.0705 38.4241 45.3463 38.4958 45.6001C40.1454 51.2332 41.4696 56.127 44.4103 48.0608C44.4765 47.8787 44.5151 47.6912 44.4765 47.5036C43.5165 42.8194 44.1399 37.1587 44.1841 35.4318V35.4263Z" fill="black"/>
<defs>
<linearGradient id="paint0_linear_1_24" x1="7.67601" y1="-60.6667" x2="89.2309" y2="-52.0336" gradientUnits="userSpaceOnUse">
<stop stop-color="#CCFFB4"/>
<stop offset="1" stop-color="#72B3FF"/>
</linearGradient>
</defs>
</svg>
